<svg version="1.1" id="Layer_1" xmlns="http://www.w3.org/2000/svg" xmlns:xlink="http://www.w3.org/1999/xlink" x="0px" y="0px"
	 width="100%" viewBox="0 0 700 700" enable-background="new 0 0 700 700" xml:space="preserve">
<path fill="#FFFFFF" opacity="1.000000" stroke="none" 
	d="
M701.000000,268.000000 
	C701.000000,412.666656 701.000000,556.833313 701.000000,701.000000 
	C467.666656,701.000000 234.333328,701.000000 1.000000,701.000000 
	C1.000000,467.666656 1.000000,234.333328 1.000000,1.000000 
	C234.333328,1.000000 467.666656,1.000000 701.000000,1.000000 
	C701.000000,89.833336 701.000000,178.666672 701.000000,268.000000 
M594.714417,331.153992 
	C594.495178,316.880157 596.876221,303.169373 601.587708,289.580658 
	C606.025269,276.781830 605.483459,263.445282 602.371460,250.148300 
	C601.068176,244.579575 600.493164,238.595810 600.966125,232.915558 
	C601.611023,225.170502 604.122253,217.588760 604.878784,209.843750 
	C608.421021,173.583771 589.711121,140.681870 556.932739,124.943291 
	C553.192627,123.147469 549.452759,121.290840 545.561035,119.881187 
	C523.210632,111.785515 503.921844,98.940102 485.676849,83.795311 
	C471.141388,71.729721 455.299683,61.167068 439.568268,50.638813 
	C429.734741,44.057720 418.342712,42.969772 406.897064,45.918732 
	C398.555237,48.067997 390.280823,50.605145 382.180023,53.532928 
	C370.840057,57.631424 359.354218,60.821110 347.237396,60.989578 
	C327.518402,61.263748 308.009064,63.325672 288.859161,68.035751 
	C222.541565,84.347122 170.375626,120.480186 135.727386,179.843475 
	C122.957474,201.722336 112.513313,224.958252 100.996956,247.569382 
	C95.794075,257.784729 95.520981,268.551575 98.793755,279.137634 
	C102.768646,291.994690 104.138878,305.045563 105.112457,318.385345 
	C106.174355,332.935303 107.664261,347.692810 111.245537,361.780762 
	C132.267624,444.477386 182.315140,502.726196 261.491119,534.639038 
	C283.548492,543.529480 307.192963,548.578979 330.265167,554.813843 
	C341.740997,557.914917 353.658752,558.616516 365.397217,555.872803 
	C373.794250,553.910095 381.977325,551.047058 390.346985,548.949341 
	C411.323151,543.692078 432.228943,538.167725 451.522461,528.114624 
	C531.555481,486.412628 584.593140,424.926666 594.714417,331.153992 
z"/>
<path fill="#020202" opacity="1.000000" stroke="none" 
	d="
M594.662048,331.617432 
	C584.593140,424.926666 531.555481,486.412628 451.522461,528.114624 
	C432.228943,538.167725 411.323151,543.692078 390.346985,548.949341 
	C381.977325,551.047058 373.794250,553.910095 365.397217,555.872803 
	C353.658752,558.616516 341.740997,557.914917 330.265167,554.813843 
	C307.192963,548.578979 283.548492,543.529480 261.491119,534.639038 
	C182.315140,502.726196 132.267624,444.477386 111.245537,361.780762 
	C107.664261,347.692810 106.174355,332.935303 105.112457,318.385345 
	C104.138878,305.045563 102.768646,291.994690 98.793755,279.137634 
	C95.520981,268.551575 95.794075,257.784729 100.996956,247.569382 
	C112.513313,224.958252 122.957474,201.722336 135.727386,179.843475 
	C170.375626,120.480186 222.541565,84.347122 288.859161,68.035751 
	C308.009064,63.325672 327.518402,61.263748 347.237396,60.989578 
	C359.354218,60.821110 370.840057,57.631424 382.180023,53.532928 
	C390.280823,50.605145 398.555237,48.067997 406.897064,45.918732 
	C418.342712,42.969772 429.734741,44.057720 439.568268,50.638813 
	C455.299683,61.167068 471.141388,71.729721 485.676849,83.795311 
	C503.921844,98.940102 523.210632,111.785515 545.561035,119.881187 
	C549.452759,121.290840 553.192627,123.147469 556.932739,124.943291 
	C589.711121,140.681870 608.421021,173.583771 604.878784,209.843750 
	C604.122253,217.588760 601.611023,225.170502 600.966125,232.915558 
	C600.493164,238.595810 601.068176,244.579575 602.371460,250.148300 
	C605.483459,263.445282 606.025269,276.781830 601.587708,289.580658 
	C596.876221,303.169373 594.495178,316.880157 594.662048,331.617432 
M392.691986,106.891724 
	C360.323669,99.230339 327.966309,99.431427 295.761169,107.603905 
	C182.683304,136.298859 116.828545,253.142273 150.637833,364.880646 
	C181.554413,467.058655 286.929321,528.065063 391.236603,504.174286 
	C502.952454,478.586700 572.755676,365.570862 543.237122,255.197205 
	C522.421082,177.363571 471.290283,128.254700 392.691986,106.891724 
M546.030273,186.494919 
	C551.289307,197.034927 556.876343,207.426941 561.716858,218.155762 
	C566.755310,229.323212 569.954773,241.037247 567.887390,253.506607 
	C565.657532,266.956268 568.184509,279.997528 571.136902,292.985901 
	C571.466980,294.438324 573.072754,296.098511 574.470032,296.604736 
	C575.190063,296.865570 577.305298,295.030243 577.850342,293.743896 
	C582.658386,282.394867 585.406860,270.558136 583.219788,258.259308 
	C580.490601,242.911575 577.252625,227.648102 573.950989,212.409653 
	C566.236023,176.802139 546.067200,150.870010 513.090759,135.169952 
	C511.438721,134.383408 509.003296,135.242233 506.932587,135.334976 
	C507.691620,137.111542 507.972260,139.435516 509.282867,140.580902 
	C524.103027,153.532547 536.188843,168.640610 546.030273,186.494919 
M448.939789,90.508911 
	C452.223022,93.572708 455.377716,96.794235 458.851318,99.624390 
	C460.284851,100.792389 462.402954,101.120155 464.209717,101.830078 
	C464.187622,99.883217 464.849762,97.572777 464.038208,96.045418 
	C455.445435,79.874428 441.920227,70.261154 423.972351,66.956284 
	C411.173798,64.599586 399.084625,66.492645 388.318115,74.147964 
	C386.904388,75.153160 386.418823,77.463737 385.503357,79.169716 
	C387.380951,79.508827 389.460510,80.552025 391.105499,80.080170 
	C411.854218,74.128349 430.913544,77.383224 448.939789,90.508911 
z"/>
<path fill="#F5F5F5" opacity="1.000000" stroke="none" 
	d="
M393.103729,106.953400 
	C471.290283,128.254700 522.421082,177.363571 543.237122,255.197205 
	C572.755676,365.570862 502.952454,478.586700 391.236603,504.174286 
	C286.929321,528.065063 181.554413,467.058655 150.637833,364.880646 
	C116.828545,253.142273 182.683304,136.298859 295.761169,107.603905 
	C327.966309,99.431427 360.323669,99.230339 393.103729,106.953400 
M291.576752,114.964249 
	C211.688553,140.850784 163.140366,194.810516 150.124619,277.884308 
	C140.581863,338.791321 158.177612,393.216614 199.677475,438.792938 
	C268.334930,514.194336 381.554230,525.617615 463.191833,464.294861 
	C525.311890,417.632904 551.208984,353.773712 541.439941,276.778656 
	C535.206665,227.650238 511.997314,186.451660 473.902527,154.742371 
	C420.529175,110.315506 359.598267,97.586685 291.576752,114.964249 
z"/>
<path fill="#FAFAFA" opacity="1.000000" stroke="none" 
	d="
M545.869995,186.165176 
	C536.188843,168.640610 524.103027,153.532547 509.282867,140.580902 
	C507.972260,139.435516 507.691620,137.111542 506.932617,135.334961 
	C509.003296,135.242233 511.438721,134.383408 513.090759,135.169952 
	C546.067200,150.870010 566.236023,176.802139 573.950989,212.409653 
	C577.252625,227.648102 580.490601,242.911575 583.219788,258.259308 
	C585.406860,270.558136 582.658386,282.394867 577.850342,293.743896 
	C577.305298,295.030243 575.190063,296.865570 574.470032,296.604736 
	C573.072754,296.098511 571.466980,294.438324 571.136902,292.985901 
	C568.184509,279.997528 565.657532,266.956268 567.887390,253.506607 
	C569.954773,241.037247 566.755310,229.323212 561.716858,218.155762 
	C556.876343,207.426941 551.289307,197.034927 545.869995,186.165176 
z"/>
<path fill="#F9F9F9" opacity="1.000000" stroke="none" 
	d="
M448.655609,90.287163 
	C430.913544,77.383224 411.854218,74.128349 391.105499,80.080170 
	C389.460510,80.552025 387.380951,79.508827 385.503357,79.169724 
	C386.418823,77.463737 386.904388,75.153160 388.318115,74.147964 
	C399.084625,66.492645 411.173798,64.599586 423.972351,66.956284 
	C441.920227,70.261154 455.445435,79.874428 464.038208,96.045418 
	C464.849762,97.572777 464.187622,99.883217 464.209717,101.830078 
	C462.402954,101.120155 460.284851,100.792389 458.851318,99.624390 
	C455.377716,96.794235 452.223022,93.572708 448.655609,90.287163 
z"/>
<path fill="#010101" opacity="1.000000" stroke="none" 
	d="
M291.972961,114.875328 
	C359.598267,97.586685 420.529175,110.315506 473.902527,154.742371 
	C511.997314,186.451660 535.206665,227.650238 541.439941,276.778656 
	C551.208984,353.773712 525.311890,417.632904 463.191833,464.294861 
	C381.554230,525.617615 268.334930,514.194336 199.677475,438.792938 
	C158.177612,393.216614 140.581863,338.791321 150.124619,277.884308 
	C163.140366,194.810516 211.688553,140.850784 291.972961,114.875328 
M472.676788,416.699432 
	C471.235626,391.864563 465.493378,368.243988 452.146851,346.706238 
	C478.824402,340.322418 500.516998,326.628784 519.585083,308.380737 
	C523.715332,304.428101 523.709534,302.821716 519.711182,298.953247 
	C505.335632,285.044769 489.135956,273.817902 470.546295,266.294861 
	C464.656281,263.911194 458.475464,262.246033 452.358185,260.229156 
	C452.607208,259.613495 452.729645,259.127960 452.979095,258.720154 
	C466.462585,236.675323 471.697998,212.361603 472.679413,186.897034 
	C472.952148,179.820190 471.930389,178.779663 464.689423,178.993271 
	C439.186188,179.745728 414.919250,185.106064 392.874268,198.584213 
	C392.388611,198.881119 391.773041,198.965500 391.148224,199.172119 
	C390.809875,198.270691 390.511932,197.668640 390.355286,197.031860 
	C384.140717,171.765564 370.542633,150.758194 352.852295,132.135071 
	C348.648804,127.709930 347.351135,127.731071 343.084259,132.123367 
	C328.301758,147.340561 316.706360,164.648743 309.238922,184.573639 
	C307.454468,189.335007 306.202332,194.295883 304.646545,199.356323 
	C303.834015,198.927475 303.243378,198.650986 302.687225,198.317108 
	C280.412323,184.945328 256.023438,179.441544 230.311447,178.937057 
	C224.160614,178.816360 223.038162,179.958206 223.234299,186.248779 
	C223.713593,201.620483 225.543488,216.849289 230.696930,231.385147 
	C234.218842,241.319199 238.788742,250.881699 242.909943,260.657288 
	C217.404587,266.731445 195.686127,280.339661 176.642822,298.592285 
	C172.295868,302.758789 172.276917,304.342377 176.467651,308.409729 
	C191.195145,322.703583 207.869278,334.086792 227.050980,341.555420 
	C232.394394,343.635925 237.973633,345.110840 243.695572,346.943970 
	C243.207260,347.839874 242.850311,348.551788 242.443085,349.233612 
	C229.204834,371.398590 224.022659,395.726990 223.219116,421.201660 
	C223.030380,427.184814 224.223297,428.654144 230.120789,428.068146 
	C242.342331,426.853821 254.621719,425.668671 266.665466,423.364288 
	C280.230072,420.768921 292.794159,415.059906 304.657867,407.646484 
	C305.032715,408.714142 305.304291,409.324310 305.462708,409.962585 
	C311.683899,435.025818 325.079926,455.967529 342.611969,474.510498 
	C347.446350,479.623657 348.490265,479.547241 353.485413,474.436523 
	C354.417023,473.483398 355.330505,472.511322 356.223907,471.522278 
	C372.873688,453.089142 385.340271,432.343018 391.165436,407.754883 
	C391.978607,408.131653 392.594025,408.349243 393.141022,408.679993 
	C414.767944,421.757935 438.475677,427.331879 463.488525,428.118591 
	C472.715881,428.408844 473.001160,428.032013 472.764496,418.617737 
	C472.756104,418.284576 472.737640,417.951721 472.676788,416.699432 
z"/>
<path fill="#F8F8F8" opacity="1.000000" stroke="none" 
	d="
M472.700317,417.159058 
	C472.737640,417.951721 472.756104,418.284576 472.764496,418.617737 
	C473.001160,428.032013 472.715881,428.408844 463.488525,428.118591 
	C438.475677,427.331879 414.767944,421.757935 393.141022,408.679993 
	C392.594025,408.349243 391.978607,408.131653 391.165436,407.754883 
	C385.340271,432.343018 372.873688,453.089142 356.223907,471.522278 
	C355.330505,472.511322 354.417023,473.483398 353.485413,474.436523 
	C348.490265,479.547241 347.446350,479.623657 342.611969,474.510498 
	C325.079926,455.967529 311.683899,435.025818 305.462708,409.962585 
	C305.304291,409.324310 305.032715,408.714142 304.657867,407.646484 
	C292.794159,415.059906 280.230072,420.768921 266.665466,423.364288 
	C254.621719,425.668671 242.342331,426.853821 230.120789,428.068146 
	C224.223297,428.654144 223.030380,427.184814 223.219116,421.201660 
	C224.022659,395.726990 229.204834,371.398590 242.443085,349.233612 
	C242.850311,348.551788 243.207260,347.839874 243.695572,346.943970 
	C237.973633,345.110840 232.394394,343.635925 227.050980,341.555420 
	C207.869278,334.086792 191.195145,322.703583 176.467651,308.409729 
	C172.276917,304.342377 172.295868,302.758789 176.642822,298.592285 
	C195.686127,280.339661 217.404587,266.731445 242.909943,260.657288 
	C238.788742,250.881699 234.218842,241.319199 230.696930,231.385147 
	C225.543488,216.849289 223.713593,201.620483 223.234299,186.248779 
	C223.038162,179.958206 224.160614,178.816360 230.311447,178.937057 
	C256.023438,179.441544 280.412323,184.945328 302.687225,198.317108 
	C303.243378,198.650986 303.834015,198.927475 304.646545,199.356323 
	C306.202332,194.295883 307.454468,189.335007 309.238922,184.573639 
	C316.706360,164.648743 328.301758,147.340561 343.084259,132.123367 
	C347.351135,127.731071 348.648804,127.709930 352.852295,132.135071 
	C370.542633,150.758194 384.140717,171.765564 390.355286,197.031860 
	C390.511932,197.668640 390.809875,198.270691 391.148224,199.172119 
	C391.773041,198.965500 392.388611,198.881119 392.874268,198.584213 
	C414.919250,185.106064 439.186188,179.745728 464.689423,178.993271 
	C471.930389,178.779663 472.952148,179.820190 472.679413,186.897034 
	C471.697998,212.361603 466.462585,236.675323 452.979095,258.720154 
	C452.729645,259.127960 452.607208,259.613495 452.358185,260.229156 
	C458.475464,262.246033 464.656281,263.911194 470.546295,266.294861 
	C489.135956,273.817902 505.335632,285.044769 519.711182,298.953247 
	C523.709534,302.821716 523.715332,304.428101 519.585083,308.380737 
	C500.516998,326.628784 478.824402,340.322418 452.146851,346.706238 
	C465.493378,368.243988 471.235626,391.864563 472.700317,417.159058 
M280.182648,346.783020 
	C272.566162,347.290955 264.951385,348.112671 257.332306,348.154694 
	C254.221573,348.171875 252.576187,348.990173 250.992447,351.510742 
	C241.914902,365.957764 236.649445,381.772308 234.022156,398.506439 
	C232.929718,405.464569 232.380859,412.508057 231.557632,419.751984 
	C235.788239,419.449127 238.950287,419.309326 242.093124,418.983765 
	C262.660583,416.853241 282.249939,411.675171 299.937683,400.485687 
	C302.239441,399.029541 303.320740,397.599365 303.194397,394.576721 
	C302.325317,373.781464 307.558044,354.435181 317.702026,336.345367 
	C318.438019,335.032867 319.112549,333.685913 319.815643,332.354980 
	C307.263336,338.744171 294.614746,343.928864 280.182648,346.783020 
M383.878357,335.655975 
	C381.429169,334.370270 378.979950,333.084564 375.387512,331.198700 
	C388.452972,354.662842 393.947510,374.252441 392.770081,393.770935 
	C392.552124,397.383881 393.721436,399.184448 396.536407,400.903625 
	C417.108612,413.467773 439.745758,418.473328 464.169891,419.612793 
	C463.769928,414.806122 463.534515,410.192474 462.979492,405.617584 
	C460.631531,386.262451 455.422516,367.829987 444.684052,351.321350 
	C443.725647,349.847900 441.438629,348.225647 439.865967,348.318634 
	C420.214355,349.480316 401.966187,344.660645 383.878357,335.655975 
M436.359406,190.813583 
	C421.908417,193.725327 408.287872,198.722580 395.793091,206.677490 
	C393.443451,208.173370 392.653473,209.671432 392.672424,212.637650 
	C392.716919,219.590546 392.393097,226.614517 391.398682,233.491196 
	C389.268188,248.224243 383.746796,261.822662 376.338867,274.937469 
	C377.992279,274.559540 379.354584,273.828217 380.711395,273.086884 
	C399.024475,263.080811 418.438446,257.697540 439.480438,258.701782 
	C441.115479,258.779816 443.463379,257.374390 444.426697,255.947403 
	C452.232635,244.384842 457.262604,231.566605 459.976532,217.950653 
	C461.969482,207.951889 463.162262,197.793610 464.864990,186.708389 
	C454.602417,188.152298 445.892517,189.377747 436.359406,190.813583 
M306.739105,243.740295 
	C305.523010,233.541397 303.916260,223.365845 303.305084,213.130814 
	C303.094391,209.602768 302.142578,207.754257 299.378937,206.068115 
	C278.819275,193.524490 256.190491,188.527603 231.789108,187.322662 
	C232.200562,192.167542 232.445755,196.783737 233.006836,201.361221 
	C235.398636,220.873856 240.615021,239.464508 251.606491,256.034210 
	C252.489380,257.365143 254.636703,258.748932 256.111023,258.661865 
	C277.374817,257.406525 296.883423,263.078827 315.346069,273.148193 
	C316.688141,273.880127 318.060089,274.557312 318.828766,274.955017 
	C314.862549,264.819305 310.894257,254.678284 306.739105,243.740295 
M369.298828,438.766144 
	C373.730225,427.724243 378.279388,416.726501 382.456116,405.589081 
	C383.031036,404.055969 382.419891,401.080078 381.239960,400.038696 
	C366.877747,387.362885 357.631195,371.469330 351.392944,353.623627 
	C350.228333,350.292023 349.358276,346.857452 348.369232,343.527405 
	C347.789459,343.644440 347.542297,343.637878 347.518158,343.708038 
	C347.303711,344.331665 347.117462,344.965729 346.943817,345.602448 
	C341.181915,366.728912 331.228241,385.328339 314.668640,400.113586 
	C313.441772,401.209015 313.187500,404.300934 313.618378,406.207703 
	C318.890381,429.539795 331.319885,448.960205 347.082581,466.499115 
	C347.359711,466.807465 347.936584,466.846375 349.331268,467.371765 
	C355.819946,458.134674 362.393951,448.776093 369.298828,438.766144 
M508.341766,300.105316 
	C506.812439,298.821381 505.310669,297.502899 503.749573,296.258820 
	C487.721527,283.485870 470.300262,273.477753 450.068634,268.910370 
	C447.291412,268.283386 445.790253,268.988586 443.687744,270.943329 
	C437.264374,276.915314 430.702576,282.853363 423.562683,287.912811 
	C412.691772,295.616119 400.236633,300.114319 386.634583,303.459381 
	C387.981079,303.929657 388.582336,304.185852 389.207611,304.351349 
	C410.893219,310.091187 430.014801,320.137970 444.954163,337.316559 
	C445.643890,338.109711 447.264404,338.727783 448.265991,338.522583 
	C473.075378,333.438629 493.524200,320.428925 512.099548,303.616272 
	C510.801270,302.389404 509.835632,301.476898 508.341766,300.105316 
M300.553040,300.976440 
	C281.528870,294.837006 264.685577,285.268066 251.323257,270.060516 
	C250.442505,269.058136 248.144852,268.596649 246.711243,268.888916 
	C222.302536,273.865784 202.381226,287.012909 184.115677,303.257904 
	C198.017471,318.602295 227.345490,334.903839 247.159195,338.192749 
	C248.558456,338.425018 250.711548,337.680450 251.643845,336.622894 
	C264.203552,322.375977 279.950317,313.150024 297.683533,307.004761 
	C301.272064,305.761169 304.954742,304.789246 309.351349,303.463776 
	C306.103485,302.520966 303.718903,301.828735 300.553040,300.976440 
M342.008942,246.541824 
	C343.916382,252.154144 345.823853,257.766479 347.766022,263.481018 
	C348.103088,263.178406 348.288513,263.092194 348.332794,262.959045 
	C348.591034,262.182068 348.838776,261.400055 349.049103,260.608856 
	C353.827698,242.631683 361.519623,225.759659 375.167542,213.222305 
	C383.459351,205.605240 382.979187,199.010590 379.395874,190.499557 
	C378.496277,188.362823 377.859314,186.115799 376.966766,183.975739 
	C370.059875,167.415451 360.162262,152.842422 347.724457,139.428787 
	C344.832214,142.824448 342.164520,145.770615 339.701843,148.879211 
	C327.506287,164.273376 317.953400,181.052063 313.531189,200.370270 
	C313.061554,202.421890 313.276367,205.761368 314.579071,206.911499 
	C326.816467,217.715530 335.271729,231.054794 342.008942,246.541824 
M381.432587,282.918518 
	C374.254303,287.859009 367.076050,292.799500 359.897766,297.739990 
	C360.151825,298.116364 360.405884,298.492767 360.659973,298.869141 
	C388.492462,295.832794 414.540649,288.568787 435.899506,266.981995 
	C415.509491,266.682556 398.343872,273.081909 381.432587,282.918518 
M313.550659,217.536087 
	C311.349487,217.573975 311.335846,217.574661 311.497711,220.782150 
	C312.867249,247.919632 325.279663,270.228577 342.075012,290.609711 
	C342.188690,290.747620 342.649628,290.599304 343.253021,290.569672 
	C340.197479,263.671967 333.391693,238.383438 313.550659,217.536087 
M339.014496,341.407013 
	C340.538208,333.097900 342.061951,324.788818 343.585663,316.479736 
	C343.077087,316.367249 342.568542,316.254791 342.059967,316.142334 
	C324.696014,337.807556 311.526489,361.182220 311.474243,391.379761 
	C326.394989,377.129272 333.940796,360.395691 339.014496,341.407013 
M333.184143,308.317688 
	C331.369049,308.547913 329.551117,308.757965 327.739258,309.011414 
	C306.722992,311.950867 286.895111,318.042389 269.812714,331.199493 
	C266.651062,333.634644 263.840149,336.525208 260.036346,339.954895 
	C262.271423,339.954895 263.082611,339.974762 263.892609,339.952026 
	C287.236176,339.297028 307.266235,329.819092 325.869049,316.600800 
	C328.983978,314.387451 331.925354,311.929596 334.900604,309.527374 
	C334.917480,309.513763 334.273712,308.681946 333.184143,308.317688 
M358.959839,258.549286 
	C355.822388,269.067505 353.457397,279.714417 352.897583,291.493774 
	C372.226318,271.547180 388.645081,231.090515 383.531982,216.644226 
	C371.495087,228.118744 364.245911,242.304489 358.959839,258.549286 
M377.129211,354.422119 
	C371.427429,340.324890 363.326752,327.764709 352.910126,315.385193 
	C353.556763,343.535797 370.109283,382.684235 384.145264,390.072235 
	C384.658478,377.809601 381.848846,366.321259 377.129211,354.422119 
M304.637024,277.846344 
	C290.902588,271.063904 276.543732,267.036285 260.371857,267.174377 
	C276.720306,286.049286 310.925079,297.907562 335.995575,297.262909 
	C325.776917,290.876953 315.558258,284.491028 304.637024,277.846344 
M387.939484,327.623993 
	C402.647034,335.142761 417.990234,340.091553 435.838837,339.775330 
	C414.369080,318.465027 388.352203,311.298920 360.721222,308.039215 
	C360.426147,308.548492 360.131104,309.057770 359.836029,309.567047 
	C368.996704,315.448914 378.157349,321.330811 387.939484,327.623993 
z"/>
<path fill="#020202" opacity="1.000000" stroke="none" 
	d="
M280.597351,346.677246 
	C294.614746,343.928864 307.263336,338.744171 319.815643,332.354980 
	C319.112549,333.685913 318.438019,335.032867 317.702026,336.345367 
	C307.558044,354.435181 302.325317,373.781464 303.194397,394.576721 
	C303.320740,397.599365 302.239441,399.029541 299.937683,400.485687 
	C282.249939,411.675171 262.660583,416.853241 242.093124,418.983765 
	C238.950287,419.309326 235.788239,419.449127 231.557632,419.751984 
	C232.380859,412.508057 232.929718,405.464569 234.022156,398.506439 
	C236.649445,381.772308 241.914902,365.957764 250.992447,351.510742 
	C252.576187,348.990173 254.221573,348.171875 257.332306,348.154694 
	C264.951385,348.112671 272.566162,347.290955 280.597351,346.677246 
z"/>
<path fill="#020202" opacity="1.000000" stroke="none" 
	d="
M384.212891,335.817596 
	C401.966187,344.660645 420.214355,349.480316 439.865967,348.318634 
	C441.438629,348.225647 443.725647,349.847900 444.684052,351.321350 
	C455.422516,367.829987 460.631531,386.262451 462.979492,405.617584 
	C463.534515,410.192474 463.769928,414.806122 464.169891,419.612793 
	C439.745758,418.473328 417.108612,413.467773 396.536407,400.903625 
	C393.721436,399.184448 392.552124,397.383881 392.770081,393.770935 
	C393.947510,374.252441 388.452972,354.662842 375.387512,331.198700 
	C378.979950,333.084564 381.429169,334.370270 384.212891,335.817596 
z"/>
<path fill="#020202" opacity="1.000000" stroke="none" 
	d="
M436.770996,190.708389 
	C445.892517,189.377747 454.602417,188.152298 464.864990,186.708389 
	C463.162262,197.793610 461.969482,207.951889 459.976532,217.950653 
	C457.262604,231.566605 452.232635,244.384842 444.426697,255.947403 
	C443.463379,257.374390 441.115479,258.779816 439.480438,258.701782 
	C418.438446,257.697540 399.024475,263.080811 380.711395,273.086884 
	C379.354584,273.828217 377.992279,274.559540 376.338867,274.937469 
	C383.746796,261.822662 389.268188,248.224243 391.398682,233.491196 
	C392.393097,226.614517 392.716919,219.590546 392.672424,212.637650 
	C392.653473,209.671432 393.443451,208.173370 395.793091,206.677490 
	C408.287872,198.722580 421.908417,193.725327 436.770996,190.708389 
z"/>
<path fill="#020202" opacity="1.000000" stroke="none" 
	d="
M306.832550,244.138779 
	C310.894257,254.678284 314.862549,264.819305 318.828766,274.955017 
	C318.060089,274.557312 316.688141,273.880127 315.346069,273.148193 
	C296.883423,263.078827 277.374817,257.406525 256.111023,258.661865 
	C254.636703,258.748932 252.489380,257.365143 251.606491,256.034210 
	C240.615021,239.464508 235.398636,220.873856 233.006836,201.361221 
	C232.445755,196.783737 232.200562,192.167542 231.789108,187.322662 
	C256.190491,188.527603 278.819275,193.524490 299.378937,206.068115 
	C302.142578,207.754257 303.094391,209.602768 303.305084,213.130814 
	C303.916260,223.365845 305.523010,233.541397 306.832550,244.138779 
z"/>
<path fill="#020202" opacity="1.000000" stroke="none" 
	d="
M369.133392,439.091858 
	C362.393951,448.776093 355.819946,458.134674 349.331268,467.371765 
	C347.936584,466.846375 347.359711,466.807465 347.082581,466.499115 
	C331.319885,448.960205 318.890381,429.539795 313.618378,406.207703 
	C313.187500,404.300934 313.441772,401.209015 314.668640,400.113586 
	C331.228241,385.328339 341.181915,366.728912 346.943817,345.602448 
	C347.117462,344.965729 347.303711,344.331665 347.518158,343.708038 
	C347.542297,343.637878 347.789459,343.644440 348.369232,343.527405 
	C349.358276,346.857452 350.228333,350.292023 351.392944,353.623627 
	C357.631195,371.469330 366.877747,387.362885 381.239960,400.038696 
	C382.419891,401.080078 383.031036,404.055969 382.456116,405.589081 
	C378.279388,416.726501 373.730225,427.724243 369.133392,439.091858 
z"/>
<path fill="#020202" opacity="1.000000" stroke="none" 
	d="
M508.605896,300.334839 
	C509.835632,301.476898 510.801270,302.389404 512.099548,303.616272 
	C493.524200,320.428925 473.075378,333.438629 448.265991,338.522583 
	C447.264404,338.727783 445.643890,338.109711 444.954163,337.316559 
	C430.014801,320.137970 410.893219,310.091187 389.207611,304.351349 
	C388.582336,304.185852 387.981079,303.929657 386.634583,303.459381 
	C400.236633,300.114319 412.691772,295.616119 423.562683,287.912811 
	C430.702576,282.853363 437.264374,276.915314 443.687744,270.943329 
	C445.790253,268.988586 447.291412,268.283386 450.068634,268.910370 
	C470.300262,273.477753 487.721527,283.485870 503.749573,296.258820 
	C505.310669,297.502899 506.812439,298.821381 508.605896,300.334839 
z"/>
<path fill="#020202" opacity="1.000000" stroke="none" 
	d="
M300.943665,301.056488 
	C303.718903,301.828735 306.103485,302.520966 309.351349,303.463776 
	C304.954742,304.789246 301.272064,305.761169 297.683533,307.004761 
	C279.950317,313.150024 264.203552,322.375977 251.643845,336.622894 
	C250.711548,337.680450 248.558456,338.425018 247.159195,338.192749 
	C227.345490,334.903839 198.017471,318.602295 184.115677,303.257904 
	C202.381226,287.012909 222.302536,273.865784 246.711243,268.888916 
	C248.144852,268.596649 250.442505,269.058136 251.323257,270.060516 
	C264.685577,285.268066 281.528870,294.837006 300.943665,301.056488 
z"/>
<path fill="#020202" opacity="1.000000" stroke="none" 
	d="
M341.889069,246.176910 
	C335.271729,231.054794 326.816467,217.715530 314.579071,206.911499 
	C313.276367,205.761368 313.061554,202.421890 313.531189,200.370270 
	C317.953400,181.052063 327.506287,164.273376 339.701843,148.879211 
	C342.164520,145.770615 344.832214,142.824448 347.724457,139.428787 
	C360.162262,152.842422 370.059875,167.415451 376.966766,183.975739 
	C377.859314,186.115799 378.496277,188.362823 379.395874,190.499557 
	C382.979187,199.010590 383.459351,205.605240 375.167542,213.222305 
	C361.519623,225.759659 353.827698,242.631683 349.049103,260.608856 
	C348.838776,261.400055 348.591034,262.182068 348.332794,262.959045 
	C348.288513,263.092194 348.103088,263.178406 347.766022,263.481018 
	C345.823853,257.766479 343.916382,252.154144 341.889069,246.176910 
z"/>
<path fill="#060606" opacity="1.000000" stroke="none" 
	d="
M381.743866,282.725708 
	C398.343872,273.081909 415.509491,266.682556 435.899506,266.981995 
	C414.540649,288.568787 388.492462,295.832794 360.659973,298.869141 
	C360.405884,298.492767 360.151825,298.116364 359.897766,297.739990 
	C367.076050,292.799500 374.254303,287.859009 381.743866,282.725708 
z"/>
<path fill="#060606" opacity="1.000000" stroke="none" 
	d="
M313.823395,217.800354 
	C333.391693,238.383438 340.197479,263.671967 343.253021,290.569672 
	C342.649628,290.599304 342.188690,290.747620 342.075012,290.609711 
	C325.279663,270.228577 312.867249,247.919632 311.497711,220.782150 
	C311.335846,217.574661 311.349487,217.573975 313.823395,217.800354 
z"/>
<path fill="#060606" opacity="1.000000" stroke="none" 
	d="
M338.946350,341.812866 
	C333.940796,360.395691 326.394989,377.129272 311.474243,391.379761 
	C311.526489,361.182220 324.696014,337.807556 342.059967,316.142334 
	C342.568542,316.254791 343.077087,316.367249 343.585663,316.479736 
	C342.061951,324.788818 340.538208,333.097900 338.946350,341.812866 
z"/>
<path fill="#060606" opacity="1.000000" stroke="none" 
	d="
M333.561279,308.274963 
	C334.273712,308.681946 334.917480,309.513763 334.900604,309.527374 
	C331.925354,311.929596 328.983978,314.387451 325.869049,316.600800 
	C307.266235,329.819092 287.236176,339.297028 263.892609,339.952026 
	C263.082611,339.974762 262.271423,339.954895 260.036346,339.954895 
	C263.840149,336.525208 266.651062,333.634644 269.812714,331.199493 
	C286.895111,318.042389 306.722992,311.950867 327.739258,309.011414 
	C329.551117,308.757965 331.369049,308.547913 333.561279,308.274963 
z"/>
<path fill="#050505" opacity="1.000000" stroke="none" 
	d="
M359.044891,258.157440 
	C364.245911,242.304489 371.495087,228.118744 383.531982,216.644226 
	C388.645081,231.090515 372.226318,271.547180 352.897583,291.493774 
	C353.457397,279.714417 355.822388,269.067505 359.044891,258.157440 
z"/>
<path fill="#060606" opacity="1.000000" stroke="none" 
	d="
M377.286560,354.776001 
	C381.848846,366.321259 384.658478,377.809601 384.145264,390.072235 
	C370.109283,382.684235 353.556763,343.535797 352.910126,315.385193 
	C363.326752,327.764709 371.427429,340.324890 377.286560,354.776001 
z"/>
<path fill="#070707" opacity="1.000000" stroke="none" 
	d="
M304.988312,277.975708 
	C315.558258,284.491028 325.776917,290.876953 335.995575,297.262909 
	C310.925079,297.907562 276.720306,286.049286 260.371857,267.174377 
	C276.543732,267.036285 290.902588,271.063904 304.988312,277.975708 
z"/>
<path fill="#060606" opacity="1.000000" stroke="none" 
	d="
M387.628723,327.418335 
	C378.157349,321.330811 368.996704,315.448914 359.836029,309.567047 
	C360.131104,309.057770 360.426147,308.548492 360.721222,308.039215 
	C388.352203,311.298920 414.369080,318.465027 435.838837,339.775330 
	C417.990234,340.091553 402.647034,335.142761 387.628723,327.418335 
z"/>
</svg>