<svg version="1.1" id="Layer_1" xmlns="http://www.w3.org/2000/svg" xmlns:xlink="http://www.w3.org/1999/xlink" x="0px" y="0px"
	 width="100%" viewBox="0 0 700 700" enable-background="new 0 0 700 700" xml:space="preserve">
<path fill="#FFFFFF" opacity="1.000000" stroke="none" 
	d="
M701.000000,268.000000 
	C701.000000,412.666656 701.000000,556.833313 701.000000,701.000000 
	C467.666656,701.000000 234.333328,701.000000 1.000000,701.000000 
	C1.000000,467.666656 1.000000,234.333328 1.000000,1.000000 
	C234.333328,1.000000 467.666656,1.000000 701.000000,1.000000 
	C701.000000,89.833336 701.000000,178.666672 701.000000,268.000000 
M597.349365,302.073853 
	C597.868286,300.495880 598.320251,298.892120 598.916504,297.343903 
	C605.160034,281.131226 605.884277,264.694489 601.624756,247.841003 
	C600.506287,243.415726 600.294922,238.522079 600.814209,233.974564 
	C601.736206,225.901199 604.073486,217.981445 604.875366,209.903778 
	C608.469299,173.699005 589.722961,140.686783 556.974426,124.958847 
	C553.083801,123.090309 549.195435,121.151939 545.145325,119.691452 
	C522.927917,111.679703 503.789856,98.881035 485.714783,83.798782 
	C471.708954,72.111992 456.513428,61.779346 441.369690,51.551117 
	C429.668243,43.647865 416.459045,42.774975 403.016266,46.739185 
	C395.857361,48.850323 388.743805,51.158394 381.729614,53.707329 
	C370.559723,57.766438 359.197998,60.835030 347.246552,60.992867 
	C327.524323,61.253323 308.012604,63.326492 288.859314,68.035423 
	C222.337326,84.390198 170.118973,120.717506 135.437866,180.285904 
	C122.855507,201.897415 112.526001,224.820160 101.157593,247.139023 
	C95.882812,257.494690 95.455696,268.408325 98.802589,279.182281 
	C102.796158,292.037964 104.137077,305.096680 105.114700,318.436737 
	C106.181137,332.988770 107.667267,347.749908 111.255600,361.837830 
	C132.317993,444.529755 182.364288,502.792572 261.580353,534.667419 
	C283.646729,543.546509 307.281616,548.638306 330.364624,554.843750 
	C347.931366,559.566284 365.319427,557.471863 382.330322,551.275818 
	C387.311737,549.461426 392.482330,548.098938 397.646118,546.863037 
	C461.396729,531.604614 512.624756,497.246948 551.633606,444.873474 
	C576.393738,411.630493 591.174377,374.292755 594.233398,332.631958 
	C594.963135,322.693604 596.152466,312.789032 597.349365,302.073853 
z"/>
<path fill="#020202" opacity="1.000000" stroke="none" 
	d="
M597.239868,302.471375 
	C596.152466,312.789032 594.963135,322.693604 594.233398,332.631958 
	C591.174377,374.292755 576.393738,411.630493 551.633606,444.873474 
	C512.624756,497.246948 461.396729,531.604614 397.646118,546.863037 
	C392.482330,548.098938 387.311737,549.461426 382.330322,551.275818 
	C365.319427,557.471863 347.931366,559.566284 330.364624,554.843750 
	C307.281616,548.638306 283.646729,543.546509 261.580353,534.667419 
	C182.364288,502.792572 132.317993,444.529755 111.255600,361.837830 
	C107.667267,347.749908 106.181137,332.988770 105.114700,318.436737 
	C104.137077,305.096680 102.796158,292.037964 98.802589,279.182281 
	C95.455696,268.408325 95.882812,257.494690 101.157593,247.139023 
	C112.526001,224.820160 122.855507,201.897415 135.437866,180.285904 
	C170.118973,120.717506 222.337326,84.390198 288.859314,68.035423 
	C308.012604,63.326492 327.524323,61.253323 347.246552,60.992867 
	C359.197998,60.835030 370.559723,57.766438 381.729614,53.707329 
	C388.743805,51.158394 395.857361,48.850323 403.016266,46.739185 
	C416.459045,42.774975 429.668243,43.647865 441.369690,51.551117 
	C456.513428,61.779346 471.708954,72.111992 485.714783,83.798782 
	C503.789856,98.881035 522.927917,111.679703 545.145325,119.691452 
	C549.195435,121.151939 553.083801,123.090309 556.974426,124.958847 
	C589.722961,140.686783 608.469299,173.699005 604.875366,209.903778 
	C604.073486,217.981445 601.736206,225.901199 600.814209,233.974564 
	C600.294922,238.522079 600.506287,243.415726 601.624756,247.841003 
	C605.884277,264.694489 605.160034,281.131226 598.916504,297.343903 
	C598.320251,298.892120 597.868286,300.495880 597.239868,302.471375 
M449.524048,481.007385 
	C547.157227,422.871429 578.769531,298.238831 520.708374,200.360657 
	C463.650482,104.173874 338.768341,72.397560 241.307281,130.272842 
	C143.159943,188.555664 113.651726,313.691071 170.476166,409.857361 
	C227.107239,505.696381 351.798859,537.895142 449.524048,481.007385 
M580.819031,286.173035 
	C583.402405,275.945435 585.102844,265.678772 582.862732,255.113174 
	C579.835999,240.837402 577.082642,226.502243 573.933044,212.254242 
	C566.035950,176.529556 545.862549,150.439102 512.484009,134.982330 
	C511.004761,134.297318 508.761749,135.261673 506.874481,135.457779 
	C507.562042,137.112595 507.852234,139.148117 509.007904,140.354507 
	C513.377625,144.915955 518.221558,149.027054 522.540100,153.632858 
	C540.917236,173.232254 552.455994,196.971375 562.965942,221.280212 
	C568.026428,232.984680 568.419861,245.048096 567.590637,257.836365 
	C566.820435,269.715424 569.784180,281.850037 571.328247,293.843231 
	C571.469238,294.938629 573.184692,296.517670 574.275208,296.609375 
	C575.343933,296.699219 576.997192,295.419586 577.599792,294.309814 
	C578.854553,291.998749 579.584717,289.402863 580.819031,286.173035 
M446.451263,76.016953 
	C443.714691,74.447685 441.103943,72.582184 438.220917,71.357758 
	C420.971344,64.031868 404.015289,63.348522 387.909058,74.415947 
	C386.624786,75.298431 386.278534,77.545990 385.496368,79.159180 
	C387.216522,79.560204 389.141388,80.679153 390.626465,80.255714 
	C417.537140,72.582603 440.101135,79.659843 459.035309,99.835236 
	C460.157806,101.031281 462.319611,101.251953 463.997803,101.926521 
	C464.080963,100.016953 464.855927,97.779167 464.131714,96.252632 
	C460.275482,88.124504 454.328308,81.667847 446.451263,76.016953 
z"/>
<path fill="#F5F5F5" opacity="1.000000" stroke="none" 
	d="
M449.199097,481.176758 
	C351.798859,537.895142 227.107239,505.696381 170.476166,409.857361 
	C113.651726,313.691071 143.159943,188.555664 241.307281,130.272842 
	C338.768341,72.397560 463.650482,104.173874 520.708374,200.360657 
	C578.769531,298.238831 547.157227,422.871429 449.199097,481.176758 
M291.696167,495.913025 
	C322.228058,504.466766 353.118378,505.719635 384.182190,499.672852 
	C495.217102,478.059265 565.693970,366.223114 537.649170,256.398590 
	C511.283234,153.148819 407.285583,89.148003 303.124847,112.070824 
	C198.477097,135.100815 129.801941,238.573181 151.625641,343.057404 
	C167.837036,420.671906 215.506485,471.262238 291.696167,495.913025 
z"/>
<path fill="#FAFAFA" opacity="1.000000" stroke="none" 
	d="
M580.674805,286.548523 
	C579.584717,289.402863 578.854553,291.998749 577.599792,294.309814 
	C576.997192,295.419586 575.343933,296.699219 574.275208,296.609375 
	C573.184692,296.517670 571.469238,294.938629 571.328247,293.843231 
	C569.784180,281.850037 566.820435,269.715424 567.590637,257.836365 
	C568.419861,245.048096 568.026428,232.984680 562.965942,221.280212 
	C552.455994,196.971375 540.917236,173.232254 522.540100,153.632858 
	C518.221558,149.027054 513.377625,144.915955 509.007904,140.354507 
	C507.852234,139.148117 507.562042,137.112595 506.874481,135.457779 
	C508.761749,135.261673 511.004761,134.297318 512.484009,134.982330 
	C545.862549,150.439102 566.035950,176.529556 573.933044,212.254242 
	C577.082642,226.502243 579.835999,240.837402 582.862732,255.113174 
	C585.102844,265.678772 583.402405,275.945435 580.674805,286.548523 
z"/>
<path fill="#F9F9F9" opacity="1.000000" stroke="none" 
	d="
M446.745544,76.223587 
	C454.328308,81.667847 460.275482,88.124504 464.131714,96.252632 
	C464.855927,97.779167 464.080963,100.016953 463.997803,101.926521 
	C462.319611,101.251953 460.157806,101.031281 459.035309,99.835236 
	C440.101135,79.659843 417.537140,72.582603 390.626465,80.255714 
	C389.141388,80.679153 387.216522,79.560204 385.496368,79.159180 
	C386.278534,77.545990 386.624786,75.298431 387.909058,74.415947 
	C404.015289,63.348522 420.971344,64.031868 438.220917,71.357758 
	C441.103943,72.582184 443.714691,74.447685 446.745544,76.223587 
z"/>
<path fill="#010101" opacity="1.000000" stroke="none" 
	d="
M291.302216,495.813904 
	C215.506485,471.262238 167.837036,420.671906 151.625641,343.057404 
	C129.801941,238.573181 198.477097,135.100815 303.124847,112.070824 
	C407.285583,89.148003 511.283234,153.148819 537.649170,256.398590 
	C565.693970,366.223114 495.217102,478.059265 384.182190,499.672852 
	C353.118378,505.719635 322.228058,504.466766 291.302216,495.813904 
M299.796783,187.705826 
	C276.136749,181.373749 254.929688,186.577850 237.401047,203.220901 
	C214.435852,225.025864 208.258255,251.893768 216.916870,282.207825 
	C185.259140,305.414001 185.434189,343.472290 198.124374,365.946686 
	C205.527817,379.058228 216.338531,388.345459 230.347534,393.741974 
	C249.554825,401.140991 268.420715,399.795532 286.182770,390.862732 
	C306.081238,411.384064 325.618225,431.532593 345.864044,452.412170 
	C366.171906,431.522797 385.652283,411.484589 405.247528,391.328217 
	C442.835876,409.782654 478.572205,391.026428 492.214294,368.219208 
	C506.437134,344.441132 505.856781,304.818451 474.596191,282.266541 
	C487.763855,239.457520 463.795624,204.456360 440.428162,193.314957 
	C398.324493,173.240311 368.859344,191.566757 345.521973,226.587234 
	C334.639282,208.595490 321.029510,194.257782 299.796783,187.705826 
z"/>
<path fill="#FAFAFA" opacity="1.000000" stroke="none" 
	d="
M300.187164,187.810944 
	C321.029510,194.257782 334.639282,208.595490 345.521973,226.587234 
	C368.859344,191.566757 398.324493,173.240311 440.428162,193.314957 
	C463.795624,204.456360 487.763855,239.457520 474.596191,282.266541 
	C505.856781,304.818451 506.437134,344.441132 492.214294,368.219208 
	C478.572205,391.026428 442.835876,409.782654 405.247528,391.328217 
	C385.652283,411.484589 366.171906,431.522797 345.864044,452.412170 
	C325.618225,431.532593 306.081238,411.384064 286.182770,390.862732 
	C268.420715,399.795532 249.554825,401.140991 230.347534,393.741974 
	C216.338531,388.345459 205.527817,379.058228 198.124374,365.946686 
	C185.434189,343.472290 185.259140,305.414001 216.916870,282.207825 
	C208.258255,251.893768 214.435852,225.025864 237.401047,203.220901 
	C254.929688,186.577850 276.136749,181.373749 300.187164,187.810944 
M352.104370,320.609222 
	C365.961121,308.891205 379.684265,297.010376 393.712036,285.500793 
	C407.862610,273.890472 424.240936,268.721619 442.490662,270.916870 
	C449.777374,271.793396 456.902924,274.009491 464.395386,275.681335 
	C469.022827,260.717316 467.512085,245.861145 460.912018,231.442245 
	C448.669586,204.696930 420.330688,190.497162 394.153809,198.134964 
	C377.633789,202.955093 365.859283,214.020386 357.213257,228.405594 
	C352.588379,236.100342 349.031281,244.436890 344.934509,252.598999 
	C344.328064,251.109222 343.637421,249.457092 342.980530,247.791672 
	C338.372070,236.107590 332.476898,225.174789 323.891907,215.891754 
	C312.565765,203.644730 298.892242,196.057404 281.854706,196.086456 
	C254.952942,196.132355 231.096146,216.753799 225.011871,244.755447 
	C222.668930,255.538406 223.191299,266.052490 226.739349,276.460968 
	C254.734772,265.330200 279.571198,269.529724 301.772766,289.225433 
	C307.002411,293.864807 312.422577,298.289673 317.763641,302.803070 
	C326.992859,310.602081 336.228729,318.393127 345.481079,326.203766 
	C347.748047,324.283630 349.651062,322.671783 352.104370,320.609222 
M258.854950,337.645355 
	C268.278717,350.047943 277.702484,362.450500 287.443298,375.270355 
	C303.946930,361.380951 319.759735,348.072937 335.781006,334.589478 
	C320.584167,321.705231 305.811279,309.292175 291.170837,296.724854 
	C282.740234,289.488037 273.178711,284.818481 262.166809,283.427002 
	C251.232010,282.045166 240.811234,283.738464 231.068329,289.160828 
	C238.303375,306.577576 247.954910,322.057739 258.854950,337.645355 
M377.604279,316.093964 
	C370.389160,322.195068 363.174011,328.296173 355.704987,334.611938 
	C371.781982,348.127686 387.620117,361.442627 403.712128,374.970978 
	C425.793396,348.140045 446.676941,321.181122 460.537842,289.015137 
	C458.647491,288.167358 457.207214,287.409119 455.691498,286.858612 
	C436.083984,279.737640 418.085083,282.840881 401.848419,295.754303 
	C393.779877,302.171356 386.042633,309.004974 377.604279,316.093964 
M362.544861,420.044342 
	C373.510925,408.326233 384.476990,396.608093 395.542450,384.783722 
	C378.548706,370.528168 362.236816,356.844604 345.756775,343.019989 
	C329.267578,356.974945 312.970428,370.767334 296.081390,385.060669 
	C312.849762,402.571014 329.239624,419.686066 345.742737,436.919434 
	C351.715546,430.923431 356.882599,425.736298 362.544861,420.044342 
M256.375366,385.933655 
	C263.573517,384.561798 270.771667,383.189941 278.917999,381.637390 
	C256.074036,353.917145 235.547806,326.664978 221.512848,294.756256 
	C206.006989,307.802094 200.582672,324.322235 203.607758,343.292114 
	C207.695236,368.924042 228.454681,385.524902 256.375366,385.933655 
M444.949280,339.448151 
	C434.669312,353.279205 424.389343,367.110291 414.114075,380.935089 
	C435.815277,393.261810 468.286163,383.834747 481.663300,361.271942 
	C494.461731,339.685394 488.717651,307.310547 470.674103,296.162567 
	C462.226166,310.382202 453.774567,324.607941 444.949280,339.448151 
z"/>
<path fill="#010101" opacity="1.000000" stroke="none" 
	d="
M351.829224,320.834564 
	C349.651062,322.671783 347.748047,324.283630 345.481079,326.203766 
	C336.228729,318.393127 326.992859,310.602081 317.763641,302.803070 
	C312.422577,298.289673 307.002411,293.864807 301.772766,289.225433 
	C279.571198,269.529724 254.734772,265.330200 226.739349,276.460968 
	C223.191299,266.052490 222.668930,255.538406 225.011871,244.755447 
	C231.096146,216.753799 254.952942,196.132355 281.854706,196.086456 
	C298.892242,196.057404 312.565765,203.644730 323.891907,215.891754 
	C332.476898,225.174789 338.372070,236.107590 342.980530,247.791672 
	C343.637421,249.457092 344.328064,251.109222 344.934509,252.598999 
	C349.031281,244.436890 352.588379,236.100342 357.213257,228.405594 
	C365.859283,214.020386 377.633789,202.955093 394.153809,198.134964 
	C420.330688,190.497162 448.669586,204.696930 460.912018,231.442245 
	C467.512085,245.861145 469.022827,260.717316 464.395386,275.681335 
	C456.902924,274.009491 449.777374,271.793396 442.490662,270.916870 
	C424.240936,268.721619 407.862610,273.890472 393.712036,285.500793 
	C379.684265,297.010376 365.961121,308.891205 351.829224,320.834564 
z"/>
<path fill="#020202" opacity="1.000000" stroke="none" 
	d="
M258.632446,337.362030 
	C247.954910,322.057739 238.303375,306.577576 231.068329,289.160828 
	C240.811234,283.738464 251.232010,282.045166 262.166809,283.427002 
	C273.178711,284.818481 282.740234,289.488037 291.170837,296.724854 
	C305.811279,309.292175 320.584167,321.705231 335.781006,334.589478 
	C319.759735,348.072937 303.946930,361.380951 287.443298,375.270355 
	C277.702484,362.450500 268.278717,350.047943 258.632446,337.362030 
z"/>
<path fill="#020202" opacity="1.000000" stroke="none" 
	d="
M377.879883,315.872070 
	C386.042633,309.004974 393.779877,302.171356 401.848419,295.754303 
	C418.085083,282.840881 436.083984,279.737640 455.691498,286.858612 
	C457.207214,287.409119 458.647491,288.167358 460.537842,289.015137 
	C446.676941,321.181122 425.793396,348.140045 403.712128,374.970978 
	C387.620117,361.442627 371.781982,348.127686 355.704987,334.611938 
	C363.174011,328.296173 370.389160,322.195068 377.879883,315.872070 
z"/>
<path fill="#010101" opacity="1.000000" stroke="none" 
	d="
M362.297241,420.296753 
	C356.882599,425.736298 351.715546,430.923431 345.742737,436.919434 
	C329.239624,419.686066 312.849762,402.571014 296.081390,385.060669 
	C312.970428,370.767334 329.267578,356.974945 345.756775,343.019989 
	C362.236816,356.844604 378.548706,370.528168 395.542450,384.783722 
	C384.476990,396.608093 373.510925,408.326233 362.297241,420.296753 
z"/>
<path fill="#020202" opacity="1.000000" stroke="none" 
	d="
M255.916534,385.935242 
	C228.454681,385.524902 207.695236,368.924042 203.607758,343.292114 
	C200.582672,324.322235 206.006989,307.802094 221.512848,294.756256 
	C235.547806,326.664978 256.074036,353.917145 278.917999,381.637390 
	C270.771667,383.189941 263.573517,384.561798 255.916534,385.935242 
z"/>
<path fill="#020202" opacity="1.000000" stroke="none" 
	d="
M445.136139,339.140900 
	C453.774567,324.607941 462.226166,310.382202 470.674103,296.162567 
	C488.717651,307.310547 494.461731,339.685394 481.663300,361.271942 
	C468.286163,383.834747 435.815277,393.261810 414.114075,380.935089 
	C424.389343,367.110291 434.669312,353.279205 445.136139,339.140900 
z"/>
</svg>