<svg version="1.1" id="Layer_1" xmlns="http://www.w3.org/2000/svg" xmlns:xlink="http://www.w3.org/1999/xlink" x="0px" y="0px"
	 width="100%" viewBox="0 0 688 688" enable-background="new 0 0 688 688" xml:space="preserve">
<path fill="#000000" opacity="1.000000" stroke="none" 
	d="
M103.680832,303.281799 
	C103.313988,297.305084 102.355362,291.846466 100.401161,286.731293 
	C93.487488,268.634399 95.933250,251.744934 106.589859,235.906860 
	C113.235298,226.030304 118.011032,215.289017 122.731384,204.414368 
	C146.958862,148.599548 187.268448,108.463882 242.472168,83.283073 
	C275.785828,68.087273 310.883972,60.847427 347.528687,60.530975 
	C359.745148,60.425480 371.467987,56.955353 382.844818,52.428146 
	C391.659943,48.920326 400.688263,46.149906 410.086365,44.431541 
	C419.529236,42.704987 428.307251,44.207535 436.791870,48.202507 
	C453.854614,56.236465 468.707214,67.683952 482.561615,80.132256 
	C502.819916,98.334488 525.496948,112.055016 550.877747,121.626587 
	C558.370911,124.452370 565.392578,128.348663 572.035156,132.837769 
	C590.652893,145.419861 598.920410,164.507187 604.172363,185.209442 
	C607.429016,198.046524 605.851257,210.987000 602.772827,223.716034 
	C600.538879,232.953217 600.570984,242.100952 602.723511,251.370178 
	C606.069580,265.779327 605.554077,280.051697 600.475342,294.067749 
	C597.746399,301.599091 595.471497,309.315948 595.396729,317.364014 
	C594.946533,365.861816 579.303711,409.165863 550.239746,447.599365 
	C514.349487,495.059875 467.805603,527.509155 410.568970,544.219849 
	C398.923096,547.619995 387.107025,550.407593 375.537720,554.138855 
	C359.783813,559.219666 343.667023,559.420471 327.854187,554.859863 
	C307.248352,548.916870 286.102234,544.792603 266.003845,537.160645 
	C201.333038,512.603210 154.566147,468.784729 125.607101,405.977356 
	C115.423759,383.891357 109.057076,360.660797 105.982941,336.598663 
	C104.594116,325.727905 104.418320,314.702179 103.680832,303.281799 
M445.303680,482.758179 
	C450.545563,479.518585 455.956055,476.520874 461.003998,473.003052 
	C534.670715,421.666321 566.032898,331.679688 540.315918,245.670441 
	C516.782410,166.963654 443.977478,108.252838 362.072510,102.473549 
	C316.893402,99.285660 274.888733,109.449738 236.376511,133.778229 
	C164.124939,179.420105 127.586067,268.408325 147.549332,351.426880 
	C160.769943,406.405609 191.671326,449.054810 239.536331,478.815857 
	C277.432037,502.378265 319.062714,511.804230 363.698792,507.864349 
	C392.494598,505.322693 419.429840,497.093567 445.303680,482.758179 
M569.227722,241.825058 
	C569.666443,251.943619 566.600220,261.885437 568.193176,272.136688 
	C569.264221,279.029358 570.129517,285.951874 571.690369,292.755402 
	C572.050232,294.324097 572.586121,296.209595 574.664001,296.313324 
	C576.440125,296.402039 577.174561,294.902771 577.762878,293.489685 
	C582.444580,282.243011 585.526672,270.500153 582.822815,258.469086 
	C579.798950,245.014053 576.764709,231.602051 574.559021,217.972443 
	C568.556702,180.881805 548.720276,153.660187 515.247803,136.512512 
	C513.084900,135.404465 510.154083,132.710571 508.114594,135.497726 
	C505.894043,138.532242 509.714844,140.034164 511.466370,141.686462 
	C540.500000,169.075394 559.099243,202.503815 569.227722,241.825058 
M459.506683,98.925446 
	C460.874176,99.884972 461.881836,102.416870 463.979614,100.670067 
	C465.730438,99.212189 464.552795,97.241074 463.740326,95.640541 
	C458.429779,85.178757 450.358612,77.360374 439.846741,72.404411 
	C422.916443,64.422386 405.952759,63.334312 389.483276,73.877815 
	C387.909149,74.885551 385.609711,76.078224 386.865997,78.532677 
	C387.929688,80.610878 390.081055,79.797203 391.807922,79.344604 
	C396.632782,78.080055 401.456146,76.921501 406.474152,76.658119 
	C427.466919,75.556290 444.749603,83.361290 459.506683,98.925446 
z"/>
<path fill="#000000" opacity="1.000000" stroke="none" 
	d="
M289.301880,115.131447 
	C309.635345,109.150330 330.036896,105.931480 350.785126,106.943687 
	C420.024231,110.321533 474.434265,140.448044 512.910706,198.420486 
	C528.523926,221.944992 538.240662,247.972580 542.019165,275.846313 
	C550.150513,335.831421 535.091736,389.457092 495.401764,435.495789 
	C463.098358,472.966400 422.066284,495.596222 373.093353,501.905823 
	C311.143005,509.887421 256.368378,492.793915 210.273163,450.169983 
	C179.250916,421.483948 159.148132,386.162140 151.371307,344.651428 
	C139.613953,281.893555 153.778229,225.294907 195.167862,176.245560 
	C220.199646,146.581299 251.716782,126.443115 289.301880,115.131447 
M332.474976,302.124451 
	C337.529175,304.921234 343.190369,305.342010 349.234802,306.058197 
	C345.669739,321.526520 341.339508,336.399078 335.979187,351.097626 
	C334.131042,350.155334 334.018188,348.738037 333.569519,347.520081 
	C330.573303,339.386200 324.355316,334.607910 316.575134,331.725586 
	C312.975037,330.391876 308.983612,329.520630 305.909546,333.030975 
	C303.110626,336.227081 303.878265,339.986816 305.251129,343.413696 
	C308.796387,352.263397 314.862518,358.493256 324.461945,360.705170 
	C326.686005,361.217651 328.909515,361.732330 331.334381,362.292419 
	C331.027161,363.573700 330.910889,364.562622 330.557587,365.458038 
	C321.908813,387.376373 311.396210,408.304199 297.582581,427.480377 
	C291.731628,435.602722 285.349579,443.272949 278.439789,450.516235 
	C275.978027,453.096771 275.123383,456.137909 277.862701,458.937012 
	C280.677032,461.812805 283.822723,461.441162 286.673767,458.710205 
	C287.875183,457.559418 289.002136,456.328217 290.127686,455.101227 
	C305.536713,438.302643 318.333740,419.685364 328.485382,399.294922 
	C330.476288,395.295990 332.114136,394.504608 336.374481,396.634521 
	C346.217682,401.555542 355.857819,399.916962 364.478088,393.394226 
	C369.889557,389.299530 369.155426,383.356049 363.206818,380.116913 
	C359.794617,378.258911 356.074982,377.570953 352.196106,377.261383 
	C347.589020,376.893707 343.205841,378.279663 338.541779,379.181549 
	C339.438324,374.980743 355.502625,331.468994 356.632782,330.066620 
	C358.500793,331.059753 360.373718,332.128235 362.307800,333.071381 
	C371.497162,337.552765 383.660217,336.201172 390.496521,329.974884 
	C395.205841,325.685760 394.934479,321.067780 389.678589,317.590942 
	C386.716522,315.631439 383.392609,314.718414 379.856903,314.242432 
	C372.484863,313.249969 365.752228,314.972382 359.836731,319.136230 
	C358.499390,317.390228 359.108276,316.286957 359.388062,315.182281 
	C363.143616,300.354553 366.018860,285.341766 368.421295,270.249390 
	C368.934113,267.027863 370.203766,265.335266 373.011566,263.903748 
	C390.763245,254.853439 401.674530,239.996109 408.050446,221.547272 
	C409.552917,217.199844 411.191132,212.071991 406.705261,208.578156 
	C402.207458,205.074997 397.424927,207.487717 393.166687,209.853378 
	C385.199188,214.279709 378.837860,220.610779 372.899597,227.439529 
	C369.110138,231.797226 366.295837,236.805008 363.242188,242.488983 
	C360.598297,238.770798 358.694031,235.678207 356.387177,232.922638 
	C347.873230,222.752716 338.666595,213.339828 325.655182,209.013382 
	C318.481628,206.628082 314.740814,209.778519 315.142639,217.274399 
	C315.287323,219.972885 315.878845,222.529556 316.949799,225.001068 
	C323.044525,239.066406 331.940369,250.765106 344.764008,259.514191 
	C348.584595,262.120819 355.195190,261.894012 355.992249,267.342590 
	C356.659668,271.905304 355.196472,276.897400 354.099915,281.563782 
	C353.198914,285.397919 353.556915,289.688843 350.898285,293.300537 
	C343.906982,282.607635 339.251892,279.023376 330.317535,276.872559 
	C326.601654,275.977997 323.215210,276.333588 320.747192,279.311523 
	C318.326935,282.231842 319.092499,285.627502 320.563263,288.751770 
	C323.091370,294.122070 326.574921,298.722534 332.474976,302.124451 
M378.843933,202.742493 
	C378.281372,195.448593 374.265045,190.814148 367.532776,188.505371 
	C361.084381,186.293945 355.259949,187.970657 350.642273,192.673965 
	C345.626373,197.782913 344.910187,204.140457 347.377197,210.708740 
	C349.948700,217.555191 357.811829,221.763077 365.152130,220.554794 
	C373.374847,219.201263 378.374847,213.022491 378.843933,202.742493 
M352.454712,157.738617 
	C351.669617,158.353851 350.773682,158.869720 350.117981,159.601013 
	C346.746704,163.360870 345.253143,167.604782 347.648651,172.408188 
	C349.947723,177.018250 353.785187,179.295456 359.014526,178.944031 
	C364.339539,178.586182 367.443756,175.553452 369.067444,170.641617 
	C370.510468,166.276352 368.919281,162.685379 366.023834,159.712326 
	C362.395416,155.986679 357.923676,155.425064 352.454712,157.738617 
z"/>
</svg>