<svg version="1.1" id="Layer_1" xmlns="http://www.w3.org/2000/svg" xmlns:xlink="http://www.w3.org/1999/xlink" x="0px" y="0px"
	 width="100%" viewBox="0 0 688 688" enable-background="new 0 0 688 688" xml:space="preserve">
<path fill="#000000" opacity="1.000000" stroke="none" 
	d="
M103.672653,304.268860 
	C103.403717,298.109467 102.407951,292.495544 100.408386,287.214233 
	C92.976349,267.584503 96.527550,249.697693 108.294853,232.884933 
	C112.891678,226.317123 116.549133,219.211884 119.566376,211.772110 
	C148.666122,140.019073 201.202011,94.027512 274.616669,71.250252 
	C297.921539,64.019798 321.886871,60.684464 346.347961,60.544186 
	C357.365173,60.481010 368.114380,57.962406 378.433868,53.966194 
	C386.975708,50.658375 395.619843,47.743076 404.500916,45.414497 
	C417.075775,42.117435 428.858429,43.645424 440.227753,49.744179 
	C458.130859,59.347813 473.643341,72.247856 489.000275,85.303001 
	C502.791443,97.027054 517.301941,107.481720 534.148254,114.425064 
	C541.688904,117.533028 549.094788,120.967789 556.630127,124.089218 
	C584.155945,135.491470 597.682129,157.787766 604.274902,185.388199 
	C606.908508,196.413422 606.566528,207.631348 603.835266,218.518433 
	C600.725220,230.915680 600.547058,243.035172 603.411682,255.489594 
	C606.425598,268.593048 604.974487,281.608215 600.506287,294.254486 
	C597.779236,301.972748 595.445679,309.802765 595.380371,318.031555 
	C595.035889,361.434265 582.301636,401.098511 557.943848,436.703735 
	C518.814636,493.901306 465.536743,531.162354 397.896851,547.490967 
	C389.340820,549.556396 381.010956,552.543274 372.532288,554.948181 
	C357.953003,559.083435 343.159576,559.194031 328.714050,555.067322 
	C305.226135,548.357300 281.086273,543.763550 258.420502,534.327454 
	C197.191925,508.837036 152.866638,465.828674 125.364624,405.476685 
	C114.079865,380.712708 107.645866,354.652649 104.854523,327.670288 
	C104.067940,320.066742 104.051353,312.383575 103.672653,304.268860 
M434.201233,488.662659 
	C443.514069,484.144348 452.430420,478.914032 460.925415,473.031677 
	C531.058350,424.468475 563.891907,338.869324 543.110596,256.280731 
	C528.519714,198.293854 494.193939,154.860916 441.773071,126.182686 
	C401.533844,104.168755 358.230896,97.363739 313.178802,104.654572 
	C262.893921,112.792244 220.896439,136.697220 188.749756,176.330521 
	C148.037033,226.524826 133.544220,284.098236 146.867340,347.248413 
	C160.373505,411.266052 197.827988,458.043610 256.072296,487.807037 
	C291.769318,506.048615 329.920929,511.761047 369.557251,507.451904 
	C391.876831,505.025360 413.186707,498.561890 434.201233,488.662659 
M573.221191,211.141174 
	C570.647583,197.904327 565.666443,185.649902 558.119080,174.470490 
	C546.600586,157.408966 531.940552,143.945160 512.996582,135.484650 
	C511.451355,134.794571 509.492676,133.410797 508.000885,135.410873 
	C506.459961,137.476883 508.308533,138.847839 509.649811,139.984406 
	C534.498779,161.040054 549.498169,188.778870 562.297485,217.930603 
	C567.410217,229.575455 570.717957,241.527390 568.505127,254.720398 
	C566.393494,267.309998 568.843384,279.865387 571.595215,292.223450 
	C571.969788,293.905609 572.336975,296.174042 574.698303,296.204376 
	C576.660522,296.229584 577.319885,294.334930 577.936768,292.817047 
	C582.515747,281.550842 585.740051,269.766357 582.657227,257.814148 
	C578.748047,242.657639 576.106812,227.318665 573.221191,211.141174 
M388.342621,74.772392 
	C387.246490,75.797234 385.802643,76.858406 386.951569,78.521820 
	C388.249084,80.400322 390.233612,79.770798 391.977417,79.244362 
	C403.404877,75.794502 414.892212,75.662117 426.450867,78.492455 
	C439.859711,81.775856 450.639618,89.279442 459.914154,99.243706 
	C460.863770,100.263985 461.858887,101.978409 463.616302,100.971672 
	C465.544617,99.867004 464.725891,98.076546 464.120453,96.532494 
	C463.697021,95.452621 463.133942,94.418541 462.551331,93.411385 
	C448.332581,68.829811 412.501221,57.558197 388.342621,74.772392 
z"/>
<path fill="#000000" opacity="1.000000" stroke="none" 
	d="
M442.167297,131.739777 
	C472.094421,148.628250 496.121613,171.247894 514.127136,200.109787 
	C529.310547,224.448090 538.857544,250.826706 542.412292,279.375671 
	C549.370361,335.256622 535.609497,385.563202 500.582977,429.452393 
	C468.750885,469.338959 427.159149,493.479401 376.533691,501.399872 
	C278.543457,516.730652 186.906311,458.648743 156.850311,366.498932 
	C148.106949,339.692352 145.397842,312.202118 148.588104,284.230957 
	C155.754883,221.394958 186.415909,172.811035 238.918488,138.107391 
	C263.708069,121.721748 291.242706,112.174324 320.839722,108.487785 
	C363.710938,103.147842 403.938538,111.137566 442.167297,131.739777 
M359.517487,223.984055 
	C353.657440,232.420761 350.508850,242.264679 345.944855,251.575821 
	C345.187683,250.905655 344.840607,250.737579 344.719757,250.468048 
	C344.108826,249.105637 343.501923,247.736725 342.992584,246.334167 
	C338.455475,233.840988 332.128906,222.347382 323.246796,212.435028 
	C309.079620,196.624603 291.619202,187.534958 270.075989,190.764252 
	C232.968323,196.326660 208.123962,234.407730 216.795914,270.915710 
	C221.884598,292.338531 232.436554,311.182648 244.359558,329.302765 
	C271.969910,371.263885 305.716675,408.051575 341.149414,443.412750 
	C344.816589,447.072571 346.892029,446.707336 350.376495,443.282196 
	C375.469086,418.616760 399.391724,392.890289 421.191376,365.262939 
	C439.791260,341.690704 457.104401,317.264374 468.957031,289.402191 
	C478.997467,265.799896 479.902802,242.626572 465.915802,220.168259 
	C451.939728,197.727417 427.362152,186.398407 402.792358,191.408813 
	C383.634186,195.315659 370.412170,207.628494 359.517487,223.984055 
z"/>
</svg>